<svg width="128" height="128" viewBox="0 0 128 128" fill="none" xmlns="http://www.w3.org/2000/svg">
<g clip-path="url(#clip0_2168_96)">
<path fill-rule="evenodd" clip-rule="evenodd" d="M64 128H32C23.5132 128 15.3741 124.628 9.37299 118.627C3.37191 112.626 0.000371274 104.487 0 96L0 32C0.000371274 23.5132 3.37191 15.3741 9.37299 9.37299C15.3741 3.37191 23.5132 0.000371274 32 0L96 0C104.487 0 112.626 3.37142 118.627 9.37258C124.629 15.3737 128 23.5131 128 32V96C128 104.487 124.629 112.626 118.627 118.627C112.626 124.629 104.487 128 96 128H84C84 125.348 82.9464 122.804 81.0711 120.929C79.1957 119.054 76.6522 118 74 118C71.3478 118 68.8043 119.054 66.9289 120.929C65.0536 122.804 64 125.348 64 128Z" fill="#BEF1DE"/>
<path fill-rule="evenodd" clip-rule="evenodd" d="M60 36H96C100.615 35.9997 105.053 34.2273 108.398 31.0488C111.743 27.8703 113.74 23.5285 113.976 18.92C114.213 14.3115 112.67 9.78832 109.667 6.28453C106.664 2.78074 102.43 0.563964 97.84 0.092C97.228 0.058 96.622 0 96 0H32C23.5132 0.000371274 15.3741 3.37191 9.37299 9.37299C3.37191 15.3741 0.000371274 23.5132 0 32L0 96C0.000371287 80.0871 6.3219 64.8261 17.574 53.574C28.8261 42.3219 44.0871 36.0004 60 36Z" fill="#ADDDCF"/>
<path fill-rule="evenodd" clip-rule="evenodd" d="M96 64C89.671 64 83.4841 65.8768 78.2218 69.393C72.9594 72.9092 68.8579 77.9069 66.4359 83.7541C64.0139 89.6014 63.3802 96.0355 64.6149 102.243C65.8496 108.45 68.8973 114.152 73.3726 118.627C77.8479 123.103 83.5497 126.15 89.7571 127.385C95.9645 128.62 102.399 127.986 108.246 125.564C114.093 123.142 119.091 119.041 122.607 113.778C126.123 108.516 128 102.329 128 96V32C128 40.4869 124.629 48.6263 118.627 54.6274C112.626 60.6286 104.487 64 96 64Z" fill="#BEF1DE"/>
<path fill-rule="evenodd" clip-rule="evenodd" d="M104 36C104 37.0609 103.579 38.0783 102.828 38.8284C102.078 39.5786 101.061 40 100 40H88C86.9391 40 85.9217 40.4214 85.1716 41.1716C84.4214 41.9217 84 42.9391 84 44V60H99.12C99.7118 60 100.296 60.1313 100.831 60.3844C101.366 60.6376 101.838 61.0063 102.213 61.4639C102.588 61.9215 102.857 62.4566 103.001 63.0308C103.144 63.6049 103.158 64.2037 103.042 64.784C102.3 68.498 101.291 73.542 100.642 76.784C100.461 77.6908 99.9713 78.5069 99.2561 79.0932C98.541 79.6796 97.6448 80 96.72 80H84V128H64V80H52C50.9391 80 49.9217 79.5786 49.1716 78.8284C48.4214 78.0783 48 77.0609 48 76V64C48 62.9391 48.4214 61.9217 49.1716 61.1716C49.9217 60.4214 50.9391 60 52 60H64V44C64 37.6348 66.5286 31.5303 71.0294 27.0294C75.5303 22.5286 81.6348 20 88 20H100C101.061 20 102.078 20.4214 102.828 21.1716C103.579 21.9217 104 22.9391 104 24V36Z" fill="#172C45"/>
</g>
<defs>
<clipPath id="clip0_2168_96">
<rect width="128" height="128" fill="white"/>
</clipPath>
</defs>
</svg>
