<svg width="128" height="128" viewBox="0 0 128 128" fill="none" xmlns="http://www.w3.org/2000/svg">
<g clip-path="url(#clip0_2169_122)">
<path d="M128 64C128 28.6538 99.3462 0 64 0C28.6538 0 0 28.6538 0 64C0 99.3462 28.6538 128 64 128C99.3462 128 128 99.3462 128 64Z" fill="#BEF1DE"/>
<path opacity="0.1" d="M112.169 21.8947C102.838 39.0231 89.6424 56.6905 73.1539 73.1789C56.6655 89.6674 38.9982 102.838 21.895 112.168C20.8227 111.236 19.7813 110.265 18.7708 109.255C12.6626 103.35 7.79107 96.2893 4.44015 88.4828C1.08922 80.6763 -0.673988 72.2809 -0.74668 63.7859C-0.819372 55.291 0.799912 46.8665 4.01675 39.0039C7.23359 31.1412 11.9836 23.9977 17.9898 17.9898C23.996 11.9819 31.1383 7.22986 39 4.01082C46.8618 0.791789 55.2858 -0.829846 63.7807 -0.759526C72.2757 -0.689206 80.6717 1.07166 88.4791 4.4204C96.2865 7.76915 103.349 12.6387 109.255 18.7452C110.266 19.7558 111.237 20.8056 112.169 21.8947Z" fill="#172C45"/>
<path d="M79.1585 30.3164H48.8427C43.9292 30.3164 39.217 32.2683 35.7426 35.7426C32.2683 39.217 30.3164 43.9292 30.3164 48.8427V79.1585C30.3164 84.072 32.2683 88.7842 35.7426 92.2586C39.217 95.733 43.9292 97.6848 48.8427 97.6848H79.1585C84.072 97.6848 88.7842 95.733 92.2586 92.2586C95.733 88.7842 97.6848 84.072 97.6848 79.1585V48.8427C97.6848 43.9292 95.733 39.217 92.2586 35.7426C88.7842 32.2683 84.072 30.3164 79.1585 30.3164ZM91.7901 76.4975C91.7901 80.5533 90.1789 84.4431 87.311 87.311C84.4431 90.1789 80.5533 91.7901 76.4975 91.7901H51.5038C47.4479 91.7901 43.5582 90.1789 40.6902 87.311C37.8223 84.4431 36.2111 80.5533 36.2111 76.4975V51.5038C36.2111 47.4479 37.8223 43.5582 40.6902 40.6902C43.5582 37.8223 47.4479 36.2111 51.5038 36.2111H76.4975C80.5533 36.2111 84.4431 37.8223 87.311 40.6902C90.1789 43.5582 91.7901 47.4479 91.7901 51.5038V76.4975Z" fill="#172C45"/>
<path d="M76.2868 51.8401L76.1268 51.6801L75.992 51.5453C72.808 48.3723 68.4956 46.5916 64.0005 46.5938C61.7305 46.6092 59.4858 47.0717 57.3946 47.9549C55.3035 48.8381 53.4068 50.1247 51.8131 51.7412C50.2193 53.3576 48.9596 55.2722 48.1061 57.3757C47.2525 59.4791 46.8217 61.7301 46.8384 64.0001C46.8349 68.6068 48.6508 73.0286 51.891 76.3032C53.4781 77.9096 55.3693 79.1838 57.4542 80.0513C59.5391 80.9188 61.776 81.3623 64.0341 81.3559C67.4214 81.2848 70.7148 80.2296 73.5127 78.319C76.3106 76.4084 78.492 73.7249 79.791 70.5958C81.0899 67.4667 81.4503 64.0272 80.828 60.6968C80.2058 57.3664 78.6279 54.2891 76.2868 51.8401ZM64.0005 75.419C61.7355 75.4508 59.5122 74.8081 57.6134 73.5728C55.7147 72.3376 54.2262 70.5655 53.3373 68.4819C52.4485 66.3984 52.1994 64.0975 52.6218 61.872C53.0441 59.6465 54.1189 57.597 55.7093 55.9839C57.2997 54.3709 59.3339 53.2674 61.5532 52.8137C63.7725 52.3599 66.0767 52.5765 68.1725 53.4359C70.2684 54.2953 72.0614 55.7586 73.3233 57.6397C74.5852 59.5209 75.2592 61.7348 75.2594 64.0001C75.2705 65.4893 74.988 66.9661 74.4281 68.3461C73.8682 69.7261 73.0418 70.9822 71.9962 72.0427C70.9506 73.1031 69.7063 73.9471 68.3343 74.5265C66.9624 75.1058 65.4897 75.4091 64.0005 75.419Z" fill="#172C45"/>
<path d="M86.2566 45.7943C86.2611 46.3347 86.1589 46.8706 85.9559 47.3714C85.753 47.8723 85.4532 48.3281 85.0739 48.713C84.6945 49.0978 84.243 49.4041 83.7451 49.6142C83.2472 49.8243 82.7128 49.9341 82.1724 49.9374C81.6366 49.9372 81.1061 49.8306 80.6118 49.6239C80.1174 49.4172 79.669 49.1145 79.2924 48.7332C78.7219 48.1544 78.3339 47.4209 78.1764 46.6235C78.0189 45.8262 78.0988 45.0002 78.4064 44.248C78.7139 43.4957 79.2355 42.8502 79.9065 42.3916C80.5774 41.933 81.3682 41.6814 82.1808 41.668C83.1319 41.6678 84.0529 42.0016 84.7829 42.6111L84.8672 42.6953C85.003 42.8059 85.1271 42.93 85.2377 43.0659L85.3303 43.1669C85.9331 43.9095 86.2604 44.8378 86.2566 45.7943Z" fill="#172C45"/>
</g>
<defs>
<clipPath id="clip0_2169_122">
<rect width="128" height="128" fill="white"/>
</clipPath>
</defs>
</svg>
